<?xml version="1.0" encoding="utf-8"?>
<!-- Generator: Adobe Illustrator 25.0.0, SVG Export Plug-In . SVG Version: 6.00 Build 0)  -->
<svg version="1.1" id="Layer_1" xmlns="http://www.w3.org/2000/svg" xmlns:xlink="http://www.w3.org/1999/xlink" x="0px" y="0px"
	 viewBox="0 0 750 750" style="enable-background:new 0 0 750 750;" xml:space="preserve">
<g>
	<polygon points="544.9,460.23 559.34,494.79 586.45,447.28 394.95,295.96 	"/>
	<polygon points="528.39,491.72 542,497.86 535.86,482.6 	"/>
	<path d="M0,0v750h750.01V0H0z M422.42,554.66H286.57v-21.4h38.14v-60.33H125.69V178.43h457.59v188.66
		c-8.76-4.96-17.71-10.02-26.75-15.13V205.19H152.45v240.98h251.29l9.11,26.75h-28.58v60.33h38.14V554.66z M602.54,453.84
		l-40.06,72.25l-45.39-20.57l-51.78,66.04l-105.8-310.56c0,0,340.87,192.79,342.82,193.96L602.54,453.84z"/>
</g>
</svg>
